HIERARCHY
ROOT Hips
{
  OFFSET -125.086 92.215 135.881
  CHANNELS 6 Xposition Yposition Zposition Zrotation Xrotation Yrotation
  JOINT LeftUpLeg
  {
    OFFSET 8.64259 1.95398 -2.38835
    CHANNELS 3 Zrotation Xrotation Yrotation
    JOINT LeftLeg
    {
      OFFSET 43.7702 0 0
      CHANNELS 3 Zrotation Xrotation Yrotation
      JOINT LeftFoot
      {
        OFFSET 40.6238 0 0
        CHANNELS 3 Zrotation Xrotation Yrotation
        JOINT LeftToeBase
        {
          OFFSET 12.7242 0 0
          CHANNELS 3 Zrotation Xrotation Yrotation
          End Site
          {
            OFFSET 0 0 0
          }
        }
      }
    }
  }
  JOINT RightUpLeg
  {
    OFFSET -8.2249 1.95398 -2.59336
    CHANNELS 3 Zrotation Xrotation Yrotation
    JOINT RightLeg
    {
      OFFSET 43.5653 0 0
      CHANNELS 3 Zrotation Xrotation Yrotation
      JOINT RightFoot
      {
        OFFSET 40.6238 0 0
        CHANNELS 3 Zrotation Xrotation Yrotation
        JOINT RightToeBase
        {
          OFFSET 12.7242 0 0
          CHANNELS 3 Zrotation Xrotation Yrotation
          End Site
          {
            OFFSET 0 0 0
          }
        }
      }
    }
  }
  JOINT Spine
  {
    OFFSET 0.165834 0.87714 6.61349
    CHANNELS 3 Zrotation Xrotation Yrotation
    JOINT Spine1
    {
      OFFSET 7.38963 1.71661e-005 0
      CHANNELS 3 Zrotation Xrotation Yrotation
      JOINT Spine2
      {
        OFFSET 11.9445 1.14441e-005 0
        CHANNELS 3 Zrotation Xrotation Yrotation
        JOINT Spine3
        {
          OFFSET 14.7254 4.19617e-005 0
          CHANNELS 3 Zrotation Xrotation Yrotation
          JOINT Spine4
          {
            OFFSET 10.9679 0 0
            CHANNELS 3 Zrotation Xrotation Yrotation
            JOINT RightShoulder
            {
              OFFSET 2.46616 -1.6653 3.69651
              CHANNELS 3 Zrotation Xrotation Yrotation
              JOINT RightArm
              {
                OFFSET 13.0012 0 0
                CHANNELS 3 Zrotation Xrotation Yrotation
                JOINT RightForeArm
                {
                  OFFSET 28.7848 1.52588e-005 0
                  CHANNELS 3 Zrotation Xrotation Yrotation
                  JOINT RightHand
                  {
                    OFFSET 26.5688 1.52588e-005 0
                    CHANNELS 3 Zrotation Xrotation Yrotation
                    End Site
                    {
                      OFFSET 0 0 0
                    }
                  }
                }
              }
            }
            JOINT LeftShoulder
            {
              OFFSET 2.38034 -1.29275 -3.7523
              CHANNELS 3 Zrotation Xrotation Yrotation
              JOINT LeftArm
              {
                OFFSET 16.3182 6.10352e-005 0
                CHANNELS 3 Zrotation Xrotation Yrotation
                JOINT LeftForeArm
                {
                  OFFSET 27.0901 0 0
                  CHANNELS 3 Zrotation Xrotation Yrotation
                  JOINT LeftHand
                  {
                    OFFSET 24.5451 1.52588e-005 0
                    CHANNELS 3 Zrotation Xrotation Yrotation
                    End Site
                    {
                      OFFSET 0 0 0
                    }
                  }
                }
              }
            }
            JOINT Neck
            {
              OFFSET 5.0226 -0.0266342 0
              CHANNELS 3 Zrotation Xrotation Yrotation
              JOINT Head
              {
                OFFSET 6.69363 2.86102e-005 0
                CHANNELS 3 Zrotation Xrotation Yrotation
                End Site
                {
                  OFFSET 0 0 0
                }
              }
            }
          }
        }
      }
    }
  }
}
MOTION
Frames:	18
Frame Time:	0.0416667
-144.205 88.2999 148.134 -77.0833 -37.1011 92.8849 8.86459 12.6201 -82.8884 -44.4522 2.4151 -16.889 45.2936 -4.67024 -0.779606 66.0235 -0.787794 11.2763 -10.9554 -10.013 -85.2907 -24.8635 -1.1544 2.93255 58.5126 2.33074 13.7013 28.466 0.310374 -2.56727 1.57966 -12.0671 -88.5512 51.031 3.67583 0.815161 39.3651 3.70811 0.652357 16.7975 3.26077 1.88321 36.8101 3.26077 1.88322 112.285 -53.9721 -67.1741 27.606 5.90437 -7.56726 -0.943599 -30.4833 -9.28722 -8.15799 -0.456833 1.41965 -76.7099 -45.4791 98.6841 -45.6863 -4.08714 -28.9379 4.4613 60.4233 0.0136076 -5.67892 0.144564 -12.501 8.42877 0.569062 -6.94938 -19.3322 0.134707 13.8504 
-137.613 89.9336 142.843 -78.0077 -33.575 93.9217 8.17608 1.49584 -80.9478 -50.7506 0.917395 -21.1169 52.591 -0.2342 8.18884 58.3604 -1.20512 9.22722 -13.501 -2.30137 -84.9081 -20.3663 -1.00752 1.06771 61.1624 1.06896 14.7947 28.7611 0.24813 -2.47261 1.30468 -12.0282 -87.6192 50.8999 3.96575 2.82623 39.2324 4.08626 2.64886 16.6917 2.93356 3.88702 36.7043 2.93355 3.887 111.943 -53.562 -67.606 27.7099 3.1874 -13.0401 -0.666108 -29.8575 -11.4526 -11.4217 -0.667337 1.64495 -76.5948 -46.5574 98.8448 -47.1528 -8.23055 -26.5523 7.97607 66.7105 0.0303709 -4.93204 0.0929281 -12.5448 7.35573 0.0100183 -5.23038 -18.1777 -0.35093 11.2184 
-131.802 90.7066 137.788 -79.6482 -29.7431 94.0204 15.6321 -3.29422 -78.6819 -37.2889 -9.27618 -28.4981 57.0366 2.1273 14.0604 55.4698 -1.15223 9.49974 -16.5746 3.87296 -85.5521 -15.2752 0.179121 0.539364 62.9041 0.20698 16.2487 28.8516 0.136536 -1.53574 1.01528 -12.0463 -86.8635 50.8882 4.08852 4.52485 39.2163 4.28351 4.34076 16.721 2.54205 5.54203 36.7337 2.54206 5.54203 110.93 -53.4731 -69.0947 26.7113 -0.345594 -17.5049 -1.31293 -26.6349 -16.6652 -11.5776 -0.679355 1.62123 -76.1419 -47.0956 99.5435 -45.1512 -11.6238 -20.8591 8.0631 64.0375 0.0291655 -6.60815 0.171351 -11.5766 6.99745 0.0103633 -4.81782 -18.4478 -0.336984 10.1149 
-125.944 90.0916 132.507 -80.2837 -28.4824 93.1056 30.697 -0.634677 -77.4069 -14.5123 -29.6583 -22.5088 57.8174 -2.37506 14.9809 48.7039 -1.2353 7.44609 -16.759 8.53564 -84.8803 -15.6543 1.1733 -0.0435668 66.0485 -0.811698 17.6795 31.8296 -0.443449 -0.655353 1.13978 -11.9902 -86.5812 50.7592 4.50985 4.90125 39.0876 4.72097 4.69829 16.5972 2.8314 6.02696 36.6099 2.8314 6.02696 109.8 -52.1545 -70.5872 26.521 -2.12235 -23.0734 -2.08704 -25.5902 -19.6265 -10.015 -0.462182 0.210612 -75.7487 -48.4537 100.115 -43.4646 -14.3958 -16.5157 8.40988 63.3878 0.03131 -5.19126 0.0809259 -11.5008 6.06329 0.0398685 -3.31527 -16.4589 -0.384137 9.48091 
-119.431 88.7433 126.356 -80.1046 -26.9739 92.0693 43.5182 -5.56308 -80.696 -7.23144 -42.4545 0.439257 63.1578 -12.5259 9.83131 42.1383 -1.124 9.07081 -16.5123 11.3146 -84.3378 -20.9226 -1.86204 -0.0172368 66.1911 -1.07227 17.1081 42.9553 -2.14302 2.16401 1.22336 -11.902 -86.3168 50.5667 4.84942 5.29391 38.8949 5.0774 5.0757 16.4123 3.03803 6.50273 36.425 3.03803 6.50271 108.656 -51.6848 -72.2618 26.3804 -2.80464 -24.5546 -3.28139 -23.8815 -23.2531 -10.038 -0.396615 -0.611524 -75.2621 -48.956 100.844 -43.2803 -17.213 -15.2002 10.6288 65.8108 0.0375311 -6.34975 0.20434 -12.8463 5.63407 0.18694 -4.07407 -15.8831 -0.137872 10.1982 
-112.462 88.1213 119.395 -80.5578 -26.3545 92.4611 36.4803 -7.56923 -81.2527 -14.1948 -33.186 -6.59535 60.5455 -12.2261 10.7444 38.7391 -0.994828 5.59405 -18.046 14.2825 -85.6807 -23.8952 -3.45522 0.518232 58.1977 0.702686 19.886 56.5008 -3.54925 4.26597 0.79841 -12.0527 -86.2194 50.8481 4.24321 5.9436 39.1712 4.50024 5.75173 16.7254 2.26578 6.9396 36.7381 2.26578 6.93959 110.104 -52.6905 -70.2077 25.833 -3.67056 -22.4406 -4.31103 -25.9572 -24.8712 -9.35993 -0.379663 -0.490056 -75.2202 -47.7484 100.965 -43.4504 -18.9762 -14.9706 12.1441 67.7914 0.0435419 -7.35642 0.236196 -11.8515 6.69017 -0.18054 -6.34448 -17.447 -0.152997 10.201 
-105.798 87.7066 112.31 -79.8864 -27.9679 95.4633 23.7301 -9.83385 -85.9335 -21.4368 -15.1005 -10.481 60.1614 -8.46825 16.6453 33.341 -0.327382 -0.714459 -17.5726 10.9237 -92.1194 -36.8564 -4.39994 3.48284 41.0504 5.43087 23.4479 63.8057 -2.58056 13.809 0.0334685 -12.1508 -86.647 51.0672 2.6827 6.03717 39.3855 2.94534 5.91383 16.9599 0.748715 6.562 36.9725 0.748709 6.56199 110.893 -53.4198 -69.1393 27.7007 -2.10287 -16.9016 -5.14562 -28.374 -23.4989 -8.63695 -0.36345 -0.23325 -75.8267 -46.7126 100.056 -43.3552 -18.384 -16.3412 12.0513 67.3501 0.0438709 -6.881 0.209269 -11.9975 7.68268 -0.493915 -7.64859 -17.9507 -0.121759 9.71475 
-99.7707 88.059 105.913 -78.1922 -28.5161 98.0032 15.1774 -3.92768 -92.7485 -20.2707 -8.05762 -9.73139 63.5049 -2.66385 19.1735 32.6707 -0.162394 -2.12476 -17.4301 -2.45417 -91.5147 -56.8583 -7.33069 4.46804 39.924 6.01424 19.026 61.2653 -2.03255 16.0896 -0.358708 -11.986 -87.2063 50.7761 1.60904 5.47694 39.0948 1.84817 5.40116 16.6525 -0.108419 5.7067 36.6652 -0.108408 5.70671 111.438 -53.9495 -68.4186 29.2069 1.04811 -14.7933 -3.18788 -30.6782 -16.7073 -8.06394 -0.380306 0.325244 -76.0533 -46.8182 99.6945 -43.8077 -15.165 -21.5218 11.0403 67.3462 0.0423692 -5.22195 0.105431 -12.2701 7.88821 0.181983 -7.99244 -16.7911 0.562497 11.1938 
-93.8477 89.2771 99.9436 -77.2385 -32.213 96.3513 15.8788 3.56867 -94.1596 -15.8911 -7.2249 -6.98808 65.2313 -0.395326 18.5825 34.11 -0.329268 -1.83745 -15.3032 -12.1486 -91.7273 -58.1435 -7.20078 4.092 47.9292 3.69295 17.4124 54.1346 -2.38439 12.2877 0.0987754 -12.0872 -87.8709 51.0044 1.82783 3.74516 39.3296 1.99079 3.66124 16.8358 0.618835 4.12072 36.8484 0.61882 4.12071 111.543 -53.804 -68.2388 29.8708 4.47851 -10.9291 -2.17082 -32.2137 -11.4545 -7.07891 -0.326203 0.199262 -76.4865 -46.0828 99.0278 -44.5726 -10.1129 -26.9409 8.72279 63.6959 0.0296592 -3.86772 -0.00693999 -10.768 5.77154 0.596207 -7.72317 -16.2444 0.745747 11.8982 
-88.3159 89.8891 94.4138 -77.2091 -36.576 95.2248 17.0764 10.8702 -95.5625 -10.0366 -6.0742 -4.78688 65.5426 1.69437 17.6103 35.1677 -0.442613 -1.71084 -15.687 -16.5632 -90.9201 -42.8047 -0.585001 4.89431 53.4278 2.14806 16.8179 57.3813 -3.60213 5.38508 0.411716 -12.2008 -88.4008 51.2546 1.91743 2.42267 39.5829 2.02216 2.33598 17.0616 1.10105 2.88661 37.0742 1.10106 2.88661 112.408 -54.4984 -67.0876 28.3474 6.74987 -5.65642 -2.06039 -32.2364 -10.2851 -6.32441 -0.328475 0.93893 -76.5816 -45.2297 98.8955 -42.7648 -3.42339 -31.5345 4.22315 57.2597 -0.786086 -3.11428 -0.0396124 -12.1449 5.87076 0.36974 -7.58331 -16.1179 0.614136 11.003 
-82.958 89.7323 89.0123 -78.2151 -39.268 96.0012 15.5402 17.9028 -97.3256 -2.47237 -2.59262 -4.75438 63.0419 4.09704 17.6147 39.2705 -0.90447 0.272617 -22.7845 -15.4001 -93.6602 -17.6993 9.60065 3.09438 54.481 3.05407 17.6509 48.8547 -2.85464 2.68239 0.247242 -12.2734 -88.5488 51.4008 1.53762 2.34165 39.7287 1.63916 2.27175 17.2083 0.76308 2.69527 37.221 0.763067 2.69526 113.097 -55.0463 -66.1851 27.895 8.59446 -1.38715 -2.08242 -31.8549 -9.04961 -5.90121 -0.326523 1.37595 -77.0422 -44.365 98.1663 -40.9135 1.25053 -35.8619 6.94621 53.8199 -8.55967 -2.32792 -0.0925633 -11.9831 6.47193 -0.0353773 -7.33379 -15.1574 0.443715 9.53601 
-77.0154 89.0859 83.1313 -78.2307 -41.8809 97.6383 13.8157 23.3334 -98.0831 -0.811621 2.12538 -5.83414 61.0945 5.28004 16.4622 45.3253 -1.29765 3.69771 -27.7477 -13.5468 -95.4939 -6.53899 21.4263 0.383524 55.594 4.79526 20.6956 47.3588 -3.08595 -2.56734 0.134951 -12.3211 -88.7483 51.5011 1.20187 2.10953 39.8292 1.29353 2.05461 17.3064 0.512513 2.37308 37.3191 0.512508 2.37307 113.799 -55.3945 -65.2364 27.8543 10.8073 -0.141324 -1.78752 -33.4954 -6.13992 -4.22647 -0.251503 2.05052 -77.222 -44.333 97.8741 -40.4248 3.38425 -37.9701 9.39685 50.7001 -13.2354 -1.35449 -0.163858 -12.5504 6.00529 -0.311158 -5.95393 -14.3771 0.0660643 8.23998 
-70.0667 88.7031 76.6329 -78.5138 -42.023 96.8771 13.0275 25.9991 -97.0078 -5.72838 3.94739 -7.13028 56.6488 2.59239 12.5297 56.329 -1.56162 6.22646 -23.2617 -14.8705 -93.9225 -14.0611 12.7602 3.62745 48.7947 6.18087 15.0623 46.8665 -3.09589 -4.43872 0.545861 -12.4924 -88.7686 51.8489 1.84311 1.59197 40.1784 1.91139 1.50929 17.6452 1.27955 2.0722 37.6579 1.27957 2.07218 113.305 -54.8852 -65.8518 27.3564 11.3676 -0.991172 -0.679531 -34.4139 -3.60073 -3.97312 -0.236931 2.05369 -76.83 -45.3864 98.4929 -40.8671 2.4652 -34.956 8.10813 50.7455 -11.7733 -1.49065 -0.151745 -12.3125 5.92343 0.283664 -4.07628 -15.7459 0.197899 8.15386 
-62.4044 89.3631 69.7899 -77.3342 -40.6151 94.8247 10.1043 22.5002 -90.5233 -23.4422 -0.31538 -11.9401 46.4768 -4.59149 0.346553 64.3234 -2.96426 0.471395 -14.3213 -14.044 -87.5274 -22.9749 -0.654899 2.93842 51.8121 4.80302 10.5371 37.9203 -1.38461 -3.80631 1.39073 -12.5428 -88.5419 51.9735 3.36831 1.01587 40.3067 3.40975 0.866483 17.7468 2.90721 1.98187 37.7595 2.90722 1.98187 112.946 -54.2696 -66.2572 26.9698 10.7663 -2.59928 -1.70127 -33.5283 -6.08253 -5.04205 -0.312335 2.26212 -76.7652 -46.2043 98.5813 -43.7405 -1.88353 -29.7972 4.2395 58.6706 -2.75169 -2.36285 -0.0918364 -12.8753 5.31808 0.678981 -3.94567 -17.3405 0.251156 9.62854 
-56.0183 90.2117 64.3156 -76.3354 -39.6293 94.6464 6.50733 9.72791 -83.3714 -46.453 0.546439 -17.9621 46.1949 -4.21833 5.65618 57.0648 -1.60577 5.92334 -11.0876 -8.10494 -84.7564 -24.374 -0.970836 2.12955 58.4078 2.14153 12.1928 30.1534 0.0170139 -2.55218 1.68104 -12.3659 -88.2718 51.6285 4.04766 1.17843 39.9634 4.09561 0.998859 17.3926 3.50631 2.34158 37.4053 3.50631 2.3416 113.077 -54.4871 -66.1068 26.2542 6.68113 -7.77244 -1.19585 -30.0343 -9.68197 -8.79665 -0.551316 2.24082 -76.9039 -45.8934 98.3656 -47.22 -6.55395 -26.7381 6.29812 66.1644 0.37333 -4.32242 0.0494608 -12.5637 6.3642 0.129592 -4.45371 -17.8371 -0.15528 9.25408 
-50.4985 91.4462 59.4094 -76.8177 -35.7462 95.6816 7.10643 -0.341301 -81.5367 -49.844 -0.550699 -22.5347 53.882 0.707694 11.5628 56.0084 -1.46774 6.89436 -13.4748 -1.15958 -85.0113 -20.9296 -0.855651 1.07969 60.6929 0.974186 13.5652 30.3251 -0.0833985 -1.86401 1.38149 -12.0899 -87.5693 51.0239 4.12619 2.82205 39.3569 4.24635 2.6376 16.813 3.08785 3.93132 36.8256 3.08785 3.93132 112.009 -53.9941 -67.5847 27.2249 3.2518 -15.1794 -0.938474 -28.5259 -12.2722 -11.7604 -0.710032 1.90213 -77.079 -45.7834 98.0876 -48.0653 -10.2274 -24.151 9.24292 71.0952 0.0426926 -5.50637 0.118485 -12.0193 6.70248 -0.582117 -4.92506 -17.1309 -0.612429 8.60004 
-45.4218 92.0273 54.5998 -78.3372 -31.0349 95.2652 16.4592 -3.1245 -79.2775 -34.0424 -11.0996 -28.351 57.452 1.84991 14.6671 55.6194 -1.32646 8.00594 -15.9762 4.15927 -85.3645 -17.4752 -0.956206 0.478291 62.2894 0.0300179 14.8257 31.6892 -0.402653 -0.717413 1.12208 -11.98 -86.846 50.7553 4.27429 4.44083 39.0844 4.46542 4.24858 16.5827 2.74435 5.51777 36.5954 2.74434 5.51777 111.081 -53.1196 -68.8115 27.08 -0.936526 -21.5496 -0.811137 -28.0701 -15.6414 -11.5302 -0.727221 2.22679 -76.5673 -46.7548 98.8837 -44.9516 -13.3233 -18.9355 8.45428 70.6277 0.0448027 -5.84682 0.146036 -12.1574 4.60225 -0.646793 -4.54644 -15.6015 -0.677739 8.19988 
-40.0606 91.4707 49.3371 -79.4958 -29.1787 93.7119 32.3584 0.339542 -78.4515 -9.24586 -34.1658 -18.8795 56.5055 -3.48172 15.5399 48.4205 -1.20207 7.95341 -16.3673 8.24228 -84.6601 -17.1346 -0.947378 -0.144819 65.504 -1.17185 15.944 34.1576 -0.824651 -0.215616 1.13488 -11.9528 -86.5333 50.6808 4.53856 4.99646 39.009 4.75379 4.79217 16.5214 2.83033 6.12624 36.5341 2.83032 6.12623 110.143 -52.4033 -70.106 25.6963 -4.29823 -25.8427 -1.31868 -26.6509 -19.8681 -10.6569 -0.477933 0.0485979 -76.1827 -47.1886 99.4785 -43.0356 -14.7292 -14.4216 7.46716 67.2918 0.0414488 -4.88239 0.0884908 -12.518 4.10652 -0.32818 -4.91905 -14.6673 -0.365639 9.39631 
